# xmcd
#
# Track frame offsets:
#	150
#	17598
#	33770
#	51372
#	64310
#	79546
#	94043
#	110942
#	128686
#	147251
#	165671
#	183564
#	198015
#	213767
#	228317
#
# Disc length: 3284 seconds
#
# Revision: 1
# Processed by: cddbd v1.5.2PL0 Copyright (c) Steve Scherf et al.
# Submitted via: audiograbber 1.83.01
#
DISCID=c50cd20f
DTITLE=Reba McEntire - Chartbuster Artist Series CB90151 Reba McEntire (CB)
DYEAR=1900
DGENRE=
TTITLE0=Somebody Should Leave (CB)
TTITLE1=Whoever's In New England (CB)
TTITLE2=You Lie (CB)
TTITLE3=How Blue (CB)
TTITLE4=The Greatest Man I Never Knew (CB)
TTITLE5=Little Rock (CB)
TTITLE6=What Am I Gonna Do About You (CB)
TTITLE7=One Promise Too Late (CB)
TTITLE8=Till You Love Me (CB)
TTITLE9=If I Had Only Known (CB)
TTITLE10=Rumor Has It (CB)
TTITLE11=Cathy's Clown (CB)
TTITLE12=The Last One To Know (CB)
TTITLE13=Walk On (CB)
TTITLE14=The Heart Is A Lonely Hunte (CB)
EXTD=
EXTT0=
EXTT1=
EXTT2=
EXTT3=
EXTT4=
EXTT5=
EXTT6=
EXTT7=
EXTT8=
EXTT9=
EXTT10=
EXTT11=
EXTT12=
EXTT13=
EXTT14=
PLAYORDER=
